<svg width="94" height="74" viewBox="0 0 94 74" fill="none" xmlns="http://www.w3.org/2000/svg">
<path fill-rule="evenodd" clip-rule="evenodd" d="M72.2657 26.6974C74.9472 26.2981 79.3402 26.2529 82.7481 26.6447C83.6914 26.7537 84.9126 27.2045 86.4112 27.9982C90.7168 30.2828 93.0065 33.9029 93.2804 38.8576C93.43 41.5606 93.4822 48.4178 93.4366 59.4279C93.429 61.3976 93.2207 62.8097 92.8126 63.6642C92.1787 64.9929 91.1374 65.9832 89.6895 66.6349C89.6192 66.6664 89.5597 66.7185 89.5196 66.7843C89.4796 66.8502 89.4605 66.9271 89.4649 67.004C89.5613 68.632 89.5981 70.3249 89.5753 72.0822C89.565 72.8477 89.1697 73.2292 88.3888 73.2267C83.6647 73.2216 75.6454 73.1989 64.3311 73.1583C63.5883 73.1557 63.2155 72.7508 63.213 71.9445C63.2104 68.3538 63.2218 61.1031 63.2472 50.1925C63.2466 50.1686 63.2396 50.1452 63.2267 50.1251C63.2136 50.105 63.1947 50.0885 63.1729 50.0783C63.1513 50.0681 63.1274 50.0639 63.1036 50.0665C63.0797 50.0692 63.0571 50.079 63.0382 50.0939C62.067 50.8723 61.0384 51.4677 59.9532 51.881C59.0833 52.2132 55.921 53.3581 50.4669 55.3156C50.0891 55.45 49.6822 55.6468 49.2462 55.9054C49.1314 55.9728 49.0348 56.0666 48.9649 56.1788C47.8163 57.9779 46.5725 59.3056 44.3399 59.6251C43.6223 59.7266 42.3061 59.4516 40.3917 58.7999C34.9197 56.9337 30.3971 55.443 26.8243 54.3273C26.8 54.3197 26.7743 54.3175 26.7491 54.3214C26.7239 54.3254 26.6997 54.3351 26.6788 54.3497C26.6579 54.3644 26.6403 54.384 26.628 54.4064C26.6158 54.4286 26.6087 54.4533 26.6075 54.4786C26.4782 60.4147 26.4682 66.2053 26.5772 71.8497C26.595 72.7169 26.1854 73.1646 25.3487 73.1925C23.0743 73.2724 19.9743 73.1236 17.6085 73.1769C11.3075 73.3163 5.81253 73.3018 1.12411 73.132C0.241683 73.1015 0.0472705 72.5038 0.0586812 71.6974C0.104308 69.0465 -0.0169721 66.8481 0.00204061 64.5509C0.0476834 58.0417 0.0649178 49.8284 0.054775 39.9113C0.0471848 35.8186 2.2004 31.296 5.67685 28.9796C10.3893 25.842 16.5282 25.8074 21.3243 28.9337C22.2904 29.5651 23.4312 30.8133 24.7472 32.6769C27.582 36.6908 29.7127 39.8209 31.1378 42.0675C31.7425 43.0222 32.3888 43.7416 33.5831 44.1867C37.4854 45.6345 39.9097 46.5257 40.8556 46.8605C41.0601 46.932 41.2843 46.9348 41.4942 46.8683C45.488 45.5878 49.7537 44.1016 54.2901 42.4103C55.3626 42.0109 56.0396 41.482 56.7774 40.5578C60.0686 36.4222 62.483 33.4039 64.0196 31.5021C66.2105 28.7914 68.9591 27.1893 72.2657 26.6974ZM75.0343 28.7589C71.3982 28.759 68.1391 30.0757 66.0548 32.6886C63.6205 35.7365 61.314 38.627 59.1358 41.3605C58.0353 42.7399 56.9064 43.6738 55.7501 44.1632C52.157 45.6796 48.527 46.9871 44.8604 48.0851C44.8386 48.0926 44.8198 48.1068 44.8058 48.1251C44.7916 48.1435 44.783 48.1655 44.7813 48.1886C44.7797 48.2117 44.7846 48.2349 44.796 48.255C44.8074 48.2752 44.8251 48.2914 44.8458 48.3019C47.0784 49.344 48.7098 50.3369 49.1017 52.9611C49.1071 52.9962 49.1202 53.03 49.1397 53.0597C49.1594 53.0895 49.1856 53.1151 49.2159 53.1339C49.2462 53.1527 49.2802 53.1647 49.3155 53.1691C49.3508 53.1734 49.3871 53.1701 49.421 53.1593C51.8578 52.3758 55.0383 51.255 58.961 49.797C61.7527 48.7586 62.7874 47.3889 64.0235 44.7911C64.0848 44.6659 64.1884 44.5652 64.3165 44.506C64.5953 44.3819 64.8691 44.4018 65.1378 44.5665C65.2 44.6039 65.2524 44.6566 65.2901 44.7189C65.3277 44.7809 65.3498 44.8513 65.3546 44.924C65.4154 46.0079 65.5372 46.7081 65.5372 47.6779C65.5296 62.3138 65.5341 69.9465 65.5518 70.5753C65.5538 70.6596 65.5892 70.74 65.6495 70.799C65.7098 70.8578 65.7908 70.8916 65.8751 70.8917H86.9093C86.9839 70.8917 87.0557 70.8615 87.1085 70.8087C87.1611 70.756 87.1905 70.6841 87.1905 70.6095V67.2628C87.1905 67.1887 87.1643 67.1171 87.1163 67.0607C87.0682 67.0042 87.0011 66.966 86.9278 66.9542C84.8387 66.6372 83.359 65.6041 82.4893 63.8546C82.0457 62.9646 81.8598 61.5447 81.9307 59.5949C81.9764 58.3574 81.9709 52.6705 81.9151 42.5353C81.9142 42.3849 81.9436 42.2359 82.0011 42.0968C82.0586 41.9576 82.1431 41.8307 82.2501 41.7247C82.3571 41.6189 82.4845 41.5357 82.6241 41.4796C82.7637 41.4236 82.9131 41.3961 83.0636 41.3986L83.1173 41.4025C83.4228 41.4075 83.7142 41.5326 83.9278 41.7511C84.1415 41.9698 84.2599 42.2647 84.2579 42.5704C84.1793 53.4194 84.1607 59.534 84.2013 60.9142C84.2887 63.9342 87.3319 65.9659 89.8575 63.7941C90.8196 62.9649 91.0094 61.7895 90.9942 60.5382C90.9308 55.7685 90.9295 49.9639 90.9903 43.1251C91.0157 40.3792 90.9998 38.802 90.9415 38.3937C90.7209 36.89 90.2041 35.4066 89.3927 33.9435C86.3079 28.3943 80.5075 28.7589 75.0343 28.7589ZM17.7032 29.6798C14.6718 28.6034 10.0126 28.6645 7.18661 30.8097C5.02623 32.449 3.47013 34.5673 2.68661 37.089C2.46855 37.7838 2.36358 39.2064 2.37118 41.3566C2.41429 52.9245 2.4511 60.5638 2.48153 64.2736C2.49672 66.3084 2.35566 68.5561 2.35946 70.6251C2.35947 70.6857 2.38405 70.7435 2.42685 70.7863C2.46964 70.8291 2.52746 70.8536 2.58798 70.8536H23.9142C24.0069 70.8536 24.0966 70.8167 24.1622 70.7511C24.2278 70.6855 24.2647 70.5959 24.2647 70.5031V53.5626C24.2647 53.4741 24.2349 53.3889 24.1808 53.3224L16.2618 43.5441C16.1589 43.4175 16.0822 43.271 16.0362 43.1144C15.9903 42.9579 15.9762 42.7933 15.9942 42.631C16.0123 42.4688 16.0625 42.312 16.1417 42.1691C16.221 42.026 16.3279 41.8996 16.4561 41.798L16.5392 41.7296C16.8099 41.5416 17.1434 41.4653 17.4688 41.5177C17.7944 41.5702 18.0872 41.7472 18.2852 42.0109C19.9384 44.2118 21.7579 46.6053 23.7433 49.1915C25.6793 51.7133 28.1748 52.3721 31.4649 53.4523C37.0129 55.2779 40.388 56.406 41.5899 56.837C43.0505 57.3581 44.4998 57.4303 45.6827 56.5099C47.3027 55.2585 47.2304 52.836 45.7892 51.4249C45.4113 51.0547 44.6732 50.6793 43.5753 50.299C38.7549 48.6305 35.0218 47.2775 32.377 46.2404C31.5025 45.8981 30.7963 45.3707 30.2589 44.6583C27.6015 41.154 25.3572 37.9844 23.5265 35.1495C21.8643 32.5859 20.1147 30.5318 17.7032 29.6798ZM31.9093 63.5744C32.1983 63.4779 32.5141 63.4977 32.7892 63.63C36.6307 65.4861 41.0011 66.6804 45.2306 66.7755C49.46 66.8744 53.8796 65.8855 57.8048 64.212C58.0858 64.093 58.4025 64.0873 58.6866 64.1974C58.9706 64.3074 59.2001 64.5242 59.3263 64.8009L59.3526 64.8585C59.4149 64.9951 59.4498 65.143 59.4542 65.2931C59.4585 65.443 59.4332 65.5927 59.379 65.7326C59.3248 65.8723 59.2429 65.9997 59.1388 66.1076C59.0346 66.2154 58.9094 66.3015 58.7716 66.3605C54.1655 68.3307 49.9542 69.0723 45.1808 68.962C40.4074 68.8479 36.2347 67.9128 31.7237 65.7296C31.5891 65.6641 31.4689 65.5716 31.3702 65.4591C31.2716 65.3466 31.1959 65.2153 31.1485 65.0734C31.1012 64.9315 31.0826 64.7811 31.0938 64.632C31.1051 64.4828 31.1459 64.3374 31.214 64.2042L31.2413 64.1466C31.3804 63.8761 31.6203 63.6709 31.9093 63.5744ZM73.4942 4.61927C76.101 3.6705 78.982 3.80709 81.503 4.99818C84.024 6.18931 85.9791 8.33757 86.9376 10.9708C87.4122 12.2747 87.6278 13.6587 87.5723 15.0431C87.5169 16.4275 87.1915 17.786 86.6143 19.0402C86.0373 20.2942 85.2198 21.4197 84.2091 22.3527C83.1982 23.2856 82.0134 24.0079 80.7227 24.4777C78.1159 25.4265 75.235 25.2899 72.714 24.0988C70.1929 22.9076 68.2378 20.7594 67.2794 18.1261C66.8048 16.8222 66.5891 15.4383 66.6446 14.0538C66.7001 12.6695 67.0255 11.3109 67.6026 10.0568C68.1797 8.80277 68.9972 7.67719 70.0079 6.74427C71.0187 5.81133 72.2036 5.08908 73.4942 4.61927ZM14.2628 4.05873C17.0468 4.05885 19.717 5.16436 21.6856 7.13295C23.6544 9.10167 24.7599 11.7726 24.7599 14.5568C24.7597 17.3408 23.6542 20.011 21.6856 21.9796C19.717 23.9482 17.0468 25.0537 14.2628 25.0538C11.4786 25.0538 8.80768 23.9484 6.83895 21.9796C4.87036 20.011 3.76485 17.3408 3.76474 14.5568C3.76474 11.7726 4.87023 9.10167 6.83895 7.13295C8.80768 5.16423 11.4786 4.05873 14.2628 4.05873ZM81.9093 7.92494C80.1797 6.62643 78.0147 6.07529 75.8907 6.39271C74.8391 6.54992 73.8287 6.91555 72.9181 7.46888C72.0076 8.0222 71.214 8.75218 70.5831 9.61732C69.9522 10.4826 69.4965 11.4664 69.2413 12.5119C68.9861 13.5573 68.9364 14.6446 69.0958 15.7111C69.4177 17.8651 70.5703 19.805 72.2999 21.1036C74.0294 22.4023 76.1944 22.9533 78.3184 22.6359C79.3702 22.4787 80.3804 22.1131 81.2911 21.5597C82.2016 21.0064 82.9951 20.2764 83.6261 19.4113C84.257 18.546 84.7136 17.5622 84.9688 16.5167C85.224 15.4712 85.2727 14.384 85.1134 13.3175C84.7915 11.1635 83.6388 9.22358 81.9093 7.92494ZM14.2511 6.38295C12.0852 6.38295 10.0081 7.24308 8.47665 8.77455C6.9452 10.306 6.08505 12.3831 6.08505 14.549C6.0851 16.7147 6.94523 18.792 8.47665 20.3234C10.0081 21.8547 12.0853 22.715 14.2511 22.715C16.4168 22.7149 18.494 21.8548 20.0255 20.3234C21.5569 18.792 22.417 16.7147 22.4171 14.549C22.4171 12.3832 21.5568 10.306 20.0255 8.77455C18.494 7.24311 16.4168 6.38299 14.2511 6.38295ZM45.8165 0.000132509C52.5144 -0.0188795 59.1858 2.00836 64.7237 5.81556C65.5871 6.4089 65.9033 7.34906 64.8194 8.01087C64.6686 8.1029 64.4938 8.14933 64.3165 8.14466C64.1391 8.13994 63.9658 8.08354 63.8184 7.98353C58.1386 4.14974 52.1392 2.24217 45.8204 2.2599C39.5015 2.27511 33.5123 4.21489 27.8526 8.07923C27.7061 8.179 27.534 8.23492 27.3575 8.24037C27.1809 8.24576 27.0064 8.20025 26.8556 8.10951C25.7679 7.45533 26.0799 6.51233 26.9356 5.91517C32.4546 2.07737 39.1184 0.0153468 45.8165 0.000132509Z" fill="black"/>
</svg>
