<svg width="71" height="68" viewBox="0 0 71 68" fill="none" xmlns="http://www.w3.org/2000/svg">
<path d="M2 32.0996C7.01792 32.0996 10.8512 32.9706 13.458 33.8525C14.7604 34.2932 15.7544 34.7354 16.4346 35.0713C16.7747 35.2393 17.0355 35.3804 17.2129 35.4785C17.2271 35.4864 17.2402 35.4935 17.252 35.5H17.3027L17.5547 35.668C18.1561 36.069 18.5863 36.8769 18.3701 37.7422L18.3672 37.7529L18.3652 37.7627L18.3359 37.8682L44.334 44.127L44.335 44.1279L44.6436 44.209C47.5844 45.0425 49.6639 47.438 50.1211 50.4385L50.9922 50.1484L52.2715 49.7383C55.2895 48.7866 58.5122 47.8995 61.2998 47.8994C64.6051 47.8994 66.8209 49.0469 68.252 50.3633C69.4854 51.498 70.0954 52.7204 70.3486 53.3281L70.4365 53.5488L70.4561 53.6016L70.4697 53.6572C70.6755 54.4805 70.2944 55.4697 69.4473 55.8936C69.4529 55.8908 69.4412 55.8975 69.3857 55.9268C69.3387 55.9516 69.2709 55.9868 69.1846 56.0322C69.0112 56.1234 68.7612 56.2546 68.4443 56.4189C67.8106 56.7476 66.9072 57.2115 65.8008 57.7646C63.5884 58.8708 60.5606 60.3374 57.2549 61.8018C53.9518 63.2649 50.356 64.7317 47.0098 65.835C43.6891 66.9298 40.5179 67.6992 38.0996 67.6992C34.7048 67.6991 29.8802 66.3136 25.1592 64.6025C20.6655 62.9739 16.1362 60.9992 12.7764 59.4766L12.5732 60.3311L12.5703 60.3418C12.4456 60.8406 12.1181 61.2516 11.7002 61.5088V62.1992H2C0.783853 62.1992 0 61.1854 0 60.1992V34.0996C0.000203499 32.8837 1.01392 32.0996 2 32.0996ZM38.3037 66.6953C38.3695 66.6941 38.4359 66.6938 38.5029 66.6914C38.4359 66.6938 38.3695 66.6941 38.3037 66.6953ZM36.8389 66.6396C37.0588 66.6592 37.2738 66.6745 37.4834 66.6846C37.2738 66.6745 37.0588 66.6592 36.8389 66.6396ZM38.7236 66.6807C38.7792 66.6777 38.8352 66.6746 38.8916 66.6709C38.8352 66.6746 38.7792 66.6777 38.7236 66.6807ZM39.1729 66.6494C39.2256 66.6449 39.2787 66.6408 39.332 66.6357C39.2787 66.6408 39.2256 66.6449 39.1729 66.6494ZM36.1582 66.5664C36.3557 66.5911 36.5499 66.6109 36.7402 66.6289C36.5499 66.6109 36.3557 66.5911 36.1582 66.5664ZM39.5684 66.6113C39.6507 66.6023 39.7337 66.5924 39.8174 66.582C39.7337 66.5924 39.6507 66.6023 39.5684 66.6113ZM35.4736 66.4697C35.6757 66.5012 35.8747 66.5284 36.0703 66.5537C35.8747 66.5284 35.6757 66.5012 35.4736 66.4697ZM40.0518 66.5518C40.1004 66.5451 40.1491 66.5373 40.1982 66.5303C40.1491 66.5373 40.1004 66.5451 40.0518 66.5518ZM40.5176 66.4834C40.5991 66.4704 40.681 66.4555 40.7637 66.4414C40.681 66.4555 40.5991 66.4704 40.5176 66.4834ZM41.9629 66.209C41.623 66.2827 41.2904 66.3491 40.9658 66.4072C41.2904 66.3491 41.623 66.2827 41.9629 66.209ZM34.7764 66.3516C34.8736 66.3693 34.9704 66.3849 35.0664 66.4014C34.9705 66.3849 34.8736 66.3693 34.7764 66.3516ZM33.9932 66.1982C34.1272 66.2262 34.2606 66.2515 34.3926 66.2773C34.2606 66.2515 34.1272 66.2262 33.9932 66.1982ZM42.2168 66.1523C42.2926 66.1353 42.3688 66.1184 42.4453 66.1006C42.3688 66.1184 42.2926 66.1353 42.2168 66.1523ZM33.2402 66.0322C33.401 66.0693 33.5606 66.1044 33.7188 66.1387C33.5606 66.1044 33.401 66.0693 33.2402 66.0322ZM32.4121 65.832C32.5902 65.8768 32.767 65.9201 32.9424 65.9619C32.767 65.9201 32.5902 65.8768 32.4121 65.832ZM43.3184 65.8857C43.3839 65.8689 43.4497 65.8523 43.5156 65.835C43.4497 65.8523 43.3839 65.8689 43.3184 65.8857ZM31.6289 65.6289C31.8285 65.6827 32.027 65.7338 32.2236 65.7842C32.027 65.7338 31.8285 65.6827 31.6289 65.6289ZM46.6162 64.9111C45.8459 65.164 45.0902 65.3972 44.3555 65.6055C45.0902 65.3972 45.8459 65.164 46.6162 64.9111ZM30.833 65.4072C30.9726 65.4471 31.1116 65.4861 31.25 65.5244C31.1116 65.4861 30.9726 65.4471 30.833 65.4072ZM29.9902 65.1611C30.151 65.2095 30.3113 65.2562 30.4707 65.3027C30.3113 65.2562 30.151 65.2095 29.9902 65.1611ZM29.1191 64.8926C29.2892 64.9462 29.459 64.998 29.6279 65.0498C29.459 64.998 29.2892 64.9462 29.1191 64.8926ZM28.3145 64.6338C28.4655 64.6832 28.6164 64.7312 28.7666 64.7793C28.6164 64.7312 28.4655 64.6832 28.3145 64.6338ZM47.0381 64.7695C47.2955 64.6832 47.5544 64.5953 47.8145 64.5049C47.5544 64.5953 47.2955 64.6832 47.0381 64.7695ZM40.1475 64.5557C39.4814 64.6491 38.8623 64.6992 38.2998 64.6992L37.71 64.6846C37.9124 64.6947 38.1091 64.7002 38.2998 64.7002C38.9747 64.7002 39.7315 64.6278 40.5527 64.4951L40.1475 64.5557ZM27.3223 64.3027C27.5131 64.3677 27.7036 64.4319 27.8936 64.4951C27.7036 64.4319 27.5131 64.3677 27.3223 64.3027ZM48.3232 64.3252C48.5218 64.2547 48.7212 64.1839 48.9209 64.1113C48.7212 64.1839 48.5218 64.2547 48.3232 64.3252ZM26.4668 64.0068C26.7058 64.0908 26.9445 64.1734 27.1826 64.2549C26.9445 64.1734 26.7058 64.0908 26.4668 64.0068ZM25.5166 63.668C25.7736 63.7611 26.0306 63.8527 26.2871 63.9434C26.0306 63.8527 25.7736 63.7611 25.5166 63.668ZM49.6338 63.8486C49.7946 63.7887 49.956 63.729 50.1172 63.668C49.956 63.729 49.7946 63.7887 49.6338 63.8486ZM13.8691 55.5498C17.233 57.078 21.8141 59.0817 26.3057 60.7227C31.0022 62.4384 35.4483 63.6992 38.2998 63.6992C39.9462 63.6992 42.2117 63.2236 44.8262 62.4229C47.4202 61.6283 50.2805 60.5386 53.0889 59.3643C58.2914 57.1889 63.2638 54.7426 65.9541 53.4014C64.8483 52.2488 63.1745 51.6209 61.5479 51.6982L61.5234 51.6992H61.5C58.8856 51.6992 55.6598 52.7357 52.29 53.7568L52.1484 53.7998H52.0557C48.7275 54.8747 45.0385 55.9999 41.9004 56C38.9204 56 35.496 55.2981 32.7588 54.5791C30.0081 53.8566 27.8753 53.0953 27.4492 52.9355L27.4385 52.9316L27.4287 52.9277C26.5653 52.5823 25.8114 51.578 26.2715 50.4277L26.2871 50.3896L26.3057 50.3525C26.5025 49.9591 26.8595 49.602 27.2529 49.4053L27.3164 49.373L27.3838 49.3506C27.5976 49.2793 27.8336 49.2247 28.0996 49.2246C28.3659 49.2246 28.6025 49.2793 28.8164 49.3506C30.2411 49.7913 37.015 52.0996 41.9004 52.0996C43.125 52.0996 44.5419 51.9318 46.4961 51.4219C46.4631 49.6141 45.2877 48.163 43.5781 47.7744L43.5713 47.7734L43.5635 47.7715L17.4277 41.4053L13.8691 55.5498ZM45.1182 63.3799C44.7888 63.4808 44.4633 63.5767 44.1426 63.668L45.1191 63.3799C45.4487 63.2789 45.7822 63.1732 46.1191 63.0635L45.1182 63.3799ZM24.8672 63.4297C25.0596 63.5007 25.2519 63.5717 25.4443 63.6416C25.2519 63.5717 25.0596 63.5007 24.8672 63.4297ZM50.7969 63.4072C50.9924 63.3316 51.1881 63.2556 51.3838 63.1787C51.1881 63.2557 50.9924 63.3316 50.7969 63.4072ZM22.4971 62.5254C22.8505 62.6639 23.2049 62.8025 23.5605 62.9385C23.2049 62.8025 22.8505 62.6639 22.4971 62.5254ZM52.0059 62.9326C52.1587 62.8715 52.3111 62.8089 52.4639 62.7471C52.3111 62.8089 52.1587 62.8715 52.0059 62.9326ZM55.5674 61.4482C54.7847 61.7869 53.9907 62.1225 53.1924 62.4512C53.9907 62.1225 54.7847 61.7869 55.5674 61.4482ZM20.6836 61.8018C21.0603 61.955 21.4395 62.1089 21.8213 62.2607C21.4395 62.1089 21.0603 61.955 20.6836 61.8018ZM18.9092 61.0684C19.3109 61.237 19.7171 61.4073 20.1279 61.5762C19.7171 61.4073 19.3109 61.237 18.9092 61.0684ZM56.0137 61.2539C56.2197 61.164 56.4247 61.0735 56.6289 60.9834C56.4247 61.0735 56.2197 61.164 56.0137 61.2539ZM1.78809 61.1777C1.82119 61.1847 1.85495 61.1907 1.88965 61.1943C1.85497 61.1907 1.82117 61.1847 1.78809 61.1777ZM1.69336 61.1523C1.71852 61.1604 1.74426 61.1668 1.77051 61.1729C1.74427 61.1668 1.71851 61.1603 1.69336 61.1523ZM1.60352 61.1191C1.62356 61.1278 1.64418 61.1352 1.66504 61.1426C1.64418 61.1352 1.62356 61.1278 1.60352 61.1191ZM1.51465 61.0742C1.53414 61.0852 1.5538 61.0958 1.57422 61.1055C1.55381 61.0958 1.53414 61.0851 1.51465 61.0742ZM1.44043 61.0283C1.4573 61.0399 1.47449 61.051 1.49219 61.0615C1.47449 61.051 1.4573 61.0399 1.44043 61.0283ZM17.4648 60.4551C17.7959 60.5972 18.1311 60.7412 18.4707 60.8848C18.1311 60.7412 17.7958 60.5972 17.4648 60.4551ZM10.7002 60.7998C10.7486 60.7998 10.7968 60.7946 10.8447 60.7861C10.7968 60.7946 10.7486 60.7998 10.7002 60.7998ZM10.8721 60.7793C10.9077 60.7718 10.9428 60.7628 10.9775 60.751C10.9428 60.7627 10.9077 60.7718 10.8721 60.7793ZM1.16602 60.7471C1.1701 60.7534 1.17449 60.7594 1.17871 60.7656C1.17448 60.7594 1.17011 60.7534 1.16602 60.7471ZM11.0312 60.7295C11.0591 60.7181 11.0865 60.7063 11.1133 60.6924C11.0865 60.7063 11.0591 60.7181 11.0312 60.7295ZM57.3281 60.6729C57.4915 60.5999 57.6546 60.5279 57.8164 60.4551C57.6546 60.5279 57.4915 60.5999 57.3281 60.6729ZM11.1543 60.6689C11.1838 60.6517 11.2126 60.6335 11.2402 60.6133C11.2125 60.6335 11.1838 60.6517 11.1543 60.6689ZM11.2783 60.585C11.3026 60.5654 11.3253 60.5442 11.3477 60.5225C11.3253 60.5442 11.3026 60.5654 11.2783 60.585ZM11.3887 60.4814C11.4097 60.4585 11.4286 60.434 11.4473 60.4092C11.4286 60.434 11.4097 60.4585 11.3887 60.4814ZM1.03027 60.4355C1.0328 60.4457 1.03525 60.4558 1.03809 60.4658C1.03524 60.4558 1.0328 60.4457 1.03027 60.4355ZM11.4766 60.3711C11.4982 60.3389 11.5169 60.3052 11.5342 60.2705C11.5169 60.3052 11.4982 60.3389 11.4766 60.3711ZM58.4014 60.1904C58.5392 60.1278 58.676 60.0644 58.8125 60.002C58.676 60.0644 58.5392 60.1278 58.4014 60.1904ZM15.292 59.5098C15.7821 59.7266 16.288 59.948 16.8066 60.1729C15.794 59.7339 14.8307 59.3072 13.9365 58.9053L15.292 59.5098ZM55.5752 59.3906C55.4707 59.4361 55.3657 59.4809 55.2607 59.5264C56.0611 59.1797 56.8503 58.8312 57.6201 58.4844L55.5752 59.3906ZM60.4775 59.2314C60.6651 59.1435 60.8505 59.0555 61.0342 58.9688C60.8505 59.0555 60.6651 59.1435 60.4775 59.2314ZM3 58.9004H10V58.8994H3V58.9004ZM61.9668 58.5244C62.3666 58.3331 62.7546 58.1452 63.1299 57.9629C62.7546 58.1453 62.3666 58.3331 61.9668 58.5244ZM4 57.8994H9.21973L9.62988 56.2568L9.69727 55.9883L9.76465 55.9199L14.3242 38.0596C11.0245 36.6879 7.56033 35.9631 4 35.8174V57.8994ZM63.9131 57.5811C64.2703 57.4057 64.6132 57.236 64.9404 57.0732C64.6132 57.236 64.2703 57.4057 63.9131 57.5811ZM65.5586 56.7656C66.0074 56.5406 66.4209 56.3331 66.793 56.1436C66.4209 56.3331 66.0074 56.5406 65.5586 56.7656ZM10.6719 56.3955C10.6432 56.4526 10.6027 56.4968 10.5996 56.5L10.6504 56.4375C10.6586 56.4251 10.6645 56.4102 10.6719 56.3955ZM44.8643 54.7109C44.04 54.856 43.2377 54.954 42.4697 54.9873L43.0518 54.9512C43.8362 54.8867 44.6518 54.7614 45.4863 54.5938L44.8643 54.7109ZM40.2578 54.9326C40.4165 54.9448 40.5744 54.9549 40.7314 54.9639C40.5744 54.9549 40.4165 54.9448 40.2578 54.9326ZM69.1074 54.9346C69.1153 54.9291 69.1232 54.9237 69.1309 54.918C69.1232 54.9237 69.1153 54.9291 69.1074 54.9346ZM69.1699 54.8838C69.1975 54.8604 69.2244 54.8369 69.249 54.8105C69.2244 54.8369 69.1975 54.8605 69.1699 54.8838ZM39.1289 54.8213C39.2437 54.8348 39.3583 54.8472 39.4727 54.8594C39.3583 54.8472 39.2437 54.8348 39.1289 54.8213ZM38.5566 54.749C38.7432 54.7744 38.9294 54.7983 39.1152 54.8203C38.9294 54.7983 38.7432 54.7744 38.5566 54.749ZM69.29 54.7617C69.3081 54.7396 69.3248 54.7169 69.3408 54.6934C69.3248 54.7169 69.3081 54.7397 69.29 54.7617ZM38.0078 54.6699C38.1759 54.6955 38.3439 54.7201 38.5117 54.7432C38.3439 54.7201 38.1759 54.6955 38.0078 54.6699ZM37.4277 54.5762C37.5696 54.6 37.7115 54.6232 37.8535 54.6455C37.7115 54.6232 37.5696 54.6 37.4277 54.5762ZM69.3809 54.6309C69.3938 54.6085 69.4057 54.5857 69.417 54.5625C69.4057 54.5857 69.3939 54.6085 69.3809 54.6309ZM36.9004 54.4844C37.0443 54.5105 37.1886 54.5359 37.333 54.5605C37.1886 54.5359 37.0443 54.5105 36.9004 54.4844ZM69.4473 54.4951C69.4584 54.4675 69.4678 54.4395 69.4766 54.4111C69.4678 54.4395 69.4584 54.4675 69.4473 54.4951ZM69.4941 54.3535C69.5013 54.3245 69.5052 54.295 69.5098 54.2656C69.5051 54.295 69.5013 54.3245 69.4941 54.3535ZM35.4111 54.1855C35.6454 54.2361 35.8816 54.2854 36.1191 54.333C35.8816 54.2854 35.6454 54.2361 35.4111 54.1855ZM69.1611 53.1562C69.3368 53.4885 69.4445 53.7525 69.5 53.9004C69.5237 53.9952 69.5292 54.0955 69.5205 54.1963C69.5246 54.1486 69.5264 54.1007 69.5234 54.0537L69.5 53.8994C69.4445 53.7514 69.3366 53.4881 69.1611 53.1562ZM34.3584 53.9463C34.5664 53.9957 34.7762 54.0461 34.9883 54.0938C34.7762 54.0461 34.5664 53.9957 34.3584 53.9463ZM50.6172 53.21C49.7579 53.4806 48.8925 53.7432 48.0332 53.9795L49.3252 53.6084C50.1878 53.3505 51.0503 53.0748 51.9004 52.7998L50.6172 53.21ZM33.2344 53.668C33.4618 53.7268 33.6929 53.786 33.9277 53.8438C33.6929 53.786 33.4618 53.7268 33.2344 53.668ZM32.1914 53.3896C32.4315 53.4562 32.6778 53.5233 32.9297 53.5898C32.6778 53.5233 32.4315 53.4562 32.1914 53.3896ZM31.2217 53.1123C31.4622 53.183 31.7114 53.2558 31.9688 53.3281C31.7114 53.2558 31.4622 53.183 31.2217 53.1123ZM30.4805 52.8906C30.6716 52.9492 30.8704 53.0093 31.0762 53.0703C30.8704 53.0093 30.6716 52.9492 30.4805 52.8906ZM69.0771 53.0049C69.0403 52.939 69.003 52.8697 68.9609 52.7998C69.003 52.8697 69.0403 52.9389 69.0771 53.0049ZM39.0791 52.9004C39.3639 52.9368 39.647 52.9699 39.9277 52.9971C39.647 52.9699 39.3639 52.9368 39.0791 52.9004ZM29.6748 52.6387C29.8425 52.6924 30.0192 52.7481 30.2041 52.8057C30.0192 52.7481 29.8425 52.6924 29.6748 52.6387ZM47.0996 52.2998C46.3267 52.5106 45.6275 52.6703 44.9854 52.791C45.6275 52.6703 46.3267 52.5106 47.0996 52.2998L47.5 52.2002V52.1992L47.0996 52.2998ZM68.8662 52.6514C68.8138 52.5685 68.76 52.4821 68.7002 52.3955C68.76 52.4821 68.8138 52.5685 68.8662 52.6514ZM28.374 52.2061C28.6689 52.3086 29.0568 52.4392 29.5195 52.5889C28.6161 52.2967 27.9984 52.0745 27.7998 52L28.374 52.2061ZM68.665 52.3457C68.6311 52.2973 68.5959 52.2485 68.5596 52.1992C68.5959 52.2485 68.6311 52.2973 68.665 52.3457ZM68.4844 52.0996C68.456 52.0624 68.4272 52.0249 68.3975 51.9873C68.4272 52.0249 68.456 52.0624 68.4844 52.0996ZM65.6475 51.8467C65.7066 51.8863 65.7635 51.9292 65.8213 51.9707C65.6559 51.8519 65.4865 51.7386 65.3105 51.6357L65.6475 51.8467ZM27.626 51.9131C27.633 51.9173 27.6404 51.9207 27.6475 51.9248C27.6404 51.9207 27.633 51.9173 27.626 51.9131ZM68.3359 51.9111C68.3031 51.8707 68.2698 51.8298 68.2354 51.7891C68.2698 51.8298 68.3031 51.8707 68.3359 51.9111ZM27.4785 51.8086C27.4853 51.8143 27.4931 51.8187 27.5 51.8242C27.4931 51.8187 27.4853 51.8143 27.4785 51.8086ZM27.3418 51.668C27.3538 51.6828 27.3669 51.6967 27.3799 51.7109C27.3669 51.6967 27.3538 51.6828 27.3418 51.668ZM68.127 51.6641C68.1039 51.638 68.0804 51.612 68.0566 51.5859C68.0804 51.612 68.1039 51.638 68.127 51.6641ZM27.2959 51.6074C27.3061 51.6221 27.3171 51.6362 27.3281 51.6504C27.3171 51.6362 27.3061 51.6221 27.2959 51.6074ZM27.248 51.5303C27.2552 51.5431 27.2627 51.5558 27.2705 51.5684C27.2627 51.5558 27.2552 51.5431 27.248 51.5303ZM47.4609 50.8652C47.4866 51.0728 47.5 51.2846 47.5 51.5L47.4961 51.2852C47.4903 51.1431 47.4781 51.0027 47.4609 50.8643V50.8652ZM27.2061 51.4443C27.2132 51.4611 27.2203 51.4778 27.2285 51.4941C27.2203 51.4778 27.2132 51.4611 27.2061 51.4443ZM67.9561 51.4775C67.9185 51.4378 67.88 51.3981 67.8408 51.3584C67.88 51.3981 67.9185 51.4378 67.9561 51.4775ZM27.1787 51.374C27.1834 51.3885 27.1888 51.4028 27.1943 51.417C27.1888 51.4028 27.1834 51.3885 27.1787 51.374ZM67.7188 51.2373C67.6956 51.2148 67.6722 51.1923 67.6484 51.1699C67.6722 51.1923 67.6956 51.2148 67.7188 51.2373ZM49.1758 50.9209C49.1855 51.0133 49.194 51.1066 49.2002 51.2002V51.1992C49.1939 51.1055 49.1855 51.0124 49.1758 50.9199V50.9209ZM27.1436 51.0205C27.1379 51.0682 27.1361 51.1155 27.1387 51.1621C27.1361 51.1155 27.1379 51.0682 27.1436 51.0205ZM67.5049 51.0371C67.4726 51.0082 67.4394 50.9799 67.4062 50.9512C67.4394 50.9799 67.4726 51.0082 67.5049 51.0371ZM67.2695 50.835C67.2327 50.8045 67.1952 50.7743 67.1572 50.7441C67.1952 50.7743 67.2327 50.8045 67.2695 50.835ZM49.042 50.1055C49.0817 50.2824 49.1153 50.4621 49.1416 50.6445L49.0977 50.373C49.0645 50.1931 49.0239 50.016 48.9775 49.8418L49.042 50.1055ZM67.0068 50.627C66.9672 50.597 66.9266 50.5677 66.8857 50.5381C66.9266 50.5677 66.9672 50.597 67.0068 50.627ZM27.3984 50.5273C27.3734 50.5532 27.3506 50.5809 27.3281 50.6084C27.3506 50.5809 27.3734 50.5532 27.3984 50.5273ZM27.5303 50.4102C27.5014 50.4327 27.4735 50.457 27.4463 50.4824C27.4735 50.457 27.5014 50.4327 27.5303 50.4102ZM66.7305 50.4277C66.6844 50.396 66.6373 50.3652 66.5898 50.334C66.6373 50.3652 66.6844 50.396 66.7305 50.4277ZM66.4404 50.2373C66.3899 50.2057 66.3382 50.1754 66.2861 50.1445C66.3382 50.1754 66.3899 50.2057 66.4404 50.2373ZM66.124 50.0498C66.0737 50.0215 66.0224 49.9944 65.9707 49.9668C66.0224 49.9944 66.0737 50.0215 66.124 50.0498ZM65.7812 49.8682C65.7306 49.8428 65.6789 49.8186 65.627 49.7939C65.6789 49.8186 65.7306 49.8428 65.7812 49.8682ZM65.4463 49.709C65.3858 49.6821 65.3239 49.6567 65.2617 49.6309C65.3239 49.6568 65.3858 49.6821 65.4463 49.709ZM48.624 48.8359C48.731 49.0773 48.8243 49.3266 48.9033 49.583L48.8203 49.3281C48.7613 49.1603 48.6954 48.9959 48.624 48.835V48.8359ZM65.0576 49.5479C65.0016 49.5262 64.9441 49.5071 64.8867 49.4863C64.9441 49.5071 65.0016 49.5262 65.0576 49.5479ZM64.6689 49.4092C64.6124 49.3904 64.5548 49.3734 64.4971 49.3555C64.5548 49.3734 64.6124 49.3904 64.6689 49.4092ZM46.9092 49.1348C46.9407 49.1927 46.9718 49.2511 47.001 49.3105L46.9092 49.1338C46.8775 49.0757 46.8445 49.0185 46.8105 48.9619L46.9092 49.1348ZM64.2529 49.2812C64.1989 49.2661 64.1439 49.2536 64.0889 49.2393C64.1439 49.2536 64.1989 49.2661 64.2529 49.2812ZM63.8135 49.1699C63.7562 49.1568 63.698 49.146 63.6396 49.1338C63.698 49.146 63.7562 49.1568 63.8135 49.1699ZM63.3613 49.0771C63.2934 49.0649 63.2246 49.055 63.1553 49.0439C63.2246 49.055 63.2934 49.0649 63.3613 49.0771ZM61.2998 48.8994C60.9249 48.8994 60.5406 48.917 60.1484 48.9492C60.5406 48.917 60.9249 48.9004 61.2998 48.9004C61.4904 48.9004 61.6771 48.9041 61.8594 48.9121L61.2998 48.8994ZM46.4746 48.4756C46.5559 48.5788 46.6336 48.685 46.7061 48.7949L46.5938 48.6318C46.5169 48.5253 46.435 48.4227 46.3496 48.3232L46.4746 48.4756ZM46.0811 48.0361C46.1279 48.0821 46.1739 48.1289 46.2188 48.1768L46.0811 48.0352C46.0343 47.9892 45.9863 47.9444 45.9375 47.9004L46.0811 48.0361ZM45.3057 47.4219C45.3622 47.4576 45.4179 47.4943 45.4727 47.5322L45.3066 47.4219C45.2502 47.3862 45.1929 47.3517 45.1348 47.3184L45.3057 47.4219ZM44.5908 47.0518C44.7164 47.1038 44.8389 47.1609 44.958 47.2227L44.7773 47.1328C44.6546 47.0757 44.5284 47.0237 44.3994 46.9766L44.5908 47.0518ZM44.0039 46.8516C44.0713 46.8699 44.1381 46.8892 44.2041 46.9102L44.0039 46.8506C43.9367 46.8323 43.8684 46.8154 43.7998 46.7998L44.0039 46.8516ZM17.4004 37.5C17.4124 37.4517 17.4192 37.4034 17.4229 37.3555C17.4192 37.4034 17.4124 37.4518 17.4004 37.5ZM17.4229 37.3252C17.4243 37.289 17.4248 37.2533 17.4219 37.2178C17.4247 37.2533 17.4244 37.289 17.4229 37.3252ZM4.99512 34.8711C8.42091 35.1096 11.7626 35.8784 14.957 37.2402C11.5311 35.7797 7.93575 35.0009 4.24902 34.8271L4.99512 34.8711ZM17.416 37.1729C17.4118 37.1408 17.4069 37.1092 17.3994 37.0781C17.4069 37.1092 17.4118 37.1408 17.416 37.1729ZM17.3877 37.0352C17.379 37.0053 17.369 36.976 17.3574 36.9473C17.3689 36.976 17.379 37.0053 17.3877 37.0352ZM17.3408 36.9072C17.3294 36.8821 17.3162 36.858 17.3027 36.834C17.3161 36.858 17.3294 36.882 17.3408 36.9072ZM17.2715 36.7803C17.2593 36.7614 17.2458 36.7435 17.2324 36.7256C17.2458 36.7435 17.2593 36.7613 17.2715 36.7803ZM54.2998 0C61.5359 4.40259e-05 67.587 5.82655 67.7002 13.1758L67.7031 13.5898C67.6777 17.8518 65.6531 21.7758 62.3174 24.2861L62.1084 24.4619C61.0879 25.3659 60.5001 26.6887 60.5 28.0996V32.4004C60.4998 34.2525 58.9517 35.7998 57.0996 35.7998H51.2998C50.4503 35.7997 49.5669 35.4788 48.918 34.7559C48.2743 34.0386 47.9509 33.0268 48 31.7998V28C48 26.4991 47.335 25.0978 46.1914 24.1943C42.6292 21.6924 40.5925 17.4839 40.7002 13.1748V13.1699L40.7148 12.832C41.099 5.76287 46.8553 0.106418 53.9854 0H54.2998ZM57.0996 34.7998L57.3262 34.7891C57.3301 34.7887 57.334 34.7875 57.3379 34.7871C57.2595 34.7953 57.1798 34.7998 57.0996 34.7998ZM50.8555 34.7568C50.9237 34.77 50.9924 34.7801 51.0615 34.7871C50.9924 34.7801 50.9237 34.77 50.8555 34.7568ZM57.375 34.7812C57.4375 34.7737 57.4994 34.7644 57.5605 34.752C57.4994 34.7644 57.4375 34.7737 57.375 34.7812ZM50.6455 34.7061C50.7015 34.7226 50.7585 34.735 50.8154 34.7471C50.7584 34.735 50.7015 34.7226 50.6455 34.7061ZM57.6406 34.7324C57.6909 34.7203 57.7409 34.7077 57.79 34.6924C57.7409 34.7077 57.6909 34.7203 57.6406 34.7324ZM50.4453 34.6357C50.4806 34.65 50.5168 34.6615 50.5527 34.6738C50.5168 34.6615 50.4806 34.65 50.4453 34.6357ZM57.8633 34.666C57.907 34.6508 57.9506 34.6359 57.9932 34.6182C57.9506 34.6359 57.907 34.6508 57.8633 34.666ZM50.2393 34.5391C50.2707 34.5559 50.3029 34.5708 50.335 34.5859C50.3029 34.5708 50.2707 34.5559 50.2393 34.5391ZM58.0938 34.5723C58.1299 34.5552 58.166 34.5383 58.2012 34.5195C58.166 34.5383 58.1299 34.5552 58.0938 34.5723ZM50.0439 34.4199C50.0812 34.4454 50.1197 34.4684 50.1582 34.4912C50.1197 34.4684 50.0812 34.4454 50.0439 34.4199ZM58.2861 34.4717C58.3219 34.4507 58.357 34.429 58.3916 34.4062C58.357 34.429 58.3219 34.4507 58.2861 34.4717ZM49.8643 34.2812C49.8992 34.3112 49.9353 34.339 49.9717 34.3662C49.9353 34.339 49.8992 34.3112 49.8643 34.2812ZM58.4941 34.3359C58.518 34.3185 58.5413 34.3005 58.5645 34.2822C58.5413 34.3005 58.518 34.3185 58.4941 34.3359ZM49.7012 34.126C49.7308 34.1574 49.761 34.1877 49.792 34.2168C49.761 34.1877 49.7308 34.1574 49.7012 34.126ZM58.6631 34.2002C58.6907 34.1761 58.7176 34.1513 58.7441 34.126C58.7176 34.1513 58.6907 34.1761 58.6631 34.2002ZM58.8184 34.0527C58.8492 34.0207 58.8791 33.9878 58.9082 33.9541C58.8791 33.9878 58.8492 34.0207 58.8184 34.0527ZM49.5508 33.9492C49.5724 33.9777 49.5945 34.0053 49.6172 34.0322C49.5945 34.0053 49.5724 33.9777 49.5508 33.9492ZM58.9619 33.8906C58.9926 33.8526 59.0214 33.8132 59.0498 33.7734C59.0214 33.8132 58.9926 33.8526 58.9619 33.8906ZM49.4043 33.7305C49.4263 33.7675 49.4482 33.8039 49.4717 33.8389C49.4482 33.8039 49.4263 33.7675 49.4043 33.7305ZM59.0996 33.7021C59.1255 33.6631 59.1502 33.6235 59.1738 33.583C59.1502 33.6235 59.1255 33.6631 59.0996 33.7021ZM49.2871 33.5088C49.3054 33.5481 49.3239 33.5866 49.3438 33.624C49.324 33.5866 49.3054 33.5481 49.2871 33.5088ZM59.2158 33.5078C59.2361 33.4701 59.2542 33.4314 59.2725 33.3926C59.2542 33.4314 59.2361 33.4701 59.2158 33.5078ZM49.1787 33.2383C49.1953 33.2869 49.2118 33.3346 49.2305 33.3809C49.2118 33.3346 49.1953 33.2869 49.1787 33.2383ZM59.3154 33.3008C59.3312 33.2633 59.3446 33.2249 59.3584 33.1865C59.3446 33.2249 59.3312 33.2633 59.3154 33.3008ZM49.0869 32.9121C49.103 32.9839 49.1197 33.0537 49.1396 33.1211C49.1197 33.0537 49.103 32.9839 49.0869 32.9121ZM59.3926 33.0898C59.412 33.0276 59.4291 32.9645 59.4434 32.9004C59.4291 32.9645 59.412 33.0276 59.3926 33.0898ZM49.0391 32.6455C49.0481 32.708 49.0556 32.7695 49.0674 32.8291C49.0556 32.7695 49.0481 32.708 49.0391 32.6455ZM49.001 32.25C49.0049 32.3363 49.0089 32.4204 49.0176 32.502C49.009 32.4204 49.0049 32.3363 49.001 32.25ZM48.9951 32.1562C48.9952 32.1615 48.9959 32.1667 48.9961 32.1719C48.9928 32.0524 48.9939 31.9282 49 31.7998L48.9951 32.1562ZM50.8174 31.9248C50.8191 31.9366 50.8223 31.9482 50.8242 31.96C50.8161 31.9107 50.8085 31.8617 50.8047 31.8125L50.8174 31.9248ZM51.7998 31.7002C51.7998 31.753 51.8091 31.8136 51.8311 31.9004H56.5996V29.9004H51.7998V31.7002ZM48.8525 26.6768C48.8767 26.784 48.8987 26.8921 48.917 27.001L48.8535 26.6768C48.8293 26.5693 48.8015 26.463 48.7715 26.3574L48.8525 26.6768ZM50.5342 26.25C50.5211 26.1752 50.5087 26.1004 50.4932 26.0264C50.5087 26.1004 50.5211 26.1752 50.5342 26.25ZM57.8838 26.2197C57.8532 26.3447 57.8255 26.4714 57.7998 26.5996L57.8818 26.2295C57.8826 26.2263 57.883 26.2229 57.8838 26.2197ZM53.6523 3.82812C48.6973 4.24367 44.7752 8.32396 44.5996 13.2354C44.514 16.2096 45.8696 19.0982 48.248 20.9141L48.4814 21.0859L48.5039 21.1025L48.5244 21.1191C50.0848 22.3674 51.184 24.1144 51.5244 26.0996H56.8867C57.3718 24.008 58.4695 22.3042 60.0752 21.0195L60.0947 21.0039L60.1143 20.9902C64.34 17.9333 65.1803 11.9742 62.0996 7.7002L61.8955 7.44727C61.6741 7.19007 61.4025 6.91714 61.0928 6.60742C59.2825 4.79711 56.8376 3.79983 54.2998 3.7998H54.1348L53.6523 3.82812ZM50.4258 25.7373C50.4222 25.7233 50.4187 25.7093 50.415 25.6953C50.4187 25.7093 50.4222 25.7233 50.4258 25.7373ZM58.1035 25.4707C58.0734 25.5585 58.046 25.6477 58.0186 25.7373C58.046 25.6477 58.0734 25.5585 58.1035 25.4707ZM50.3604 25.5049C50.3468 25.4589 50.3338 25.4128 50.3193 25.3672C50.3338 25.4128 50.3468 25.4589 50.3604 25.5049ZM50.2617 25.1973C50.2438 25.1457 50.2261 25.0941 50.207 25.043C50.2262 25.0941 50.2438 25.1457 50.2617 25.1973ZM58.3389 24.8643C58.3089 24.9333 58.2801 25.003 58.252 25.0732C58.2801 25.003 58.3089 24.9333 58.3389 24.8643ZM50.1436 24.8799C50.123 24.8288 50.1019 24.7781 50.0801 24.7275C50.1019 24.7781 50.123 24.8288 50.1436 24.8799ZM58.4805 24.5557C58.4467 24.6253 58.4138 24.6956 58.3818 24.7666C58.4138 24.6956 58.4467 24.6253 58.4805 24.5557ZM50.0029 24.5557C49.9821 24.5107 49.9603 24.4663 49.9385 24.4219C49.9603 24.4663 49.9821 24.5108 50.0029 24.5557ZM61.2031 23.9395C61.0473 24.0947 60.9015 24.2586 60.7656 24.4297L60.9775 24.1787C61.1235 24.0154 61.2789 23.8594 61.4443 23.7129L61.2031 23.9395ZM58.6367 24.2529C58.6051 24.3114 58.5741 24.3702 58.5439 24.4297C58.5741 24.3702 58.6051 24.3114 58.6367 24.2529ZM49.8535 24.2529C49.8298 24.2076 49.805 24.1629 49.7803 24.1182C49.805 24.1629 49.8298 24.2076 49.8535 24.2529ZM58.8154 23.9395C58.7749 24.0069 58.7349 24.0747 58.6963 24.1436C58.7349 24.0747 58.7749 24.0069 58.8154 23.9395ZM45.6406 22.4756C46.0049 22.8063 46.3915 23.1158 46.7998 23.4004C47.0623 23.6066 47.3035 23.834 47.5225 24.0791L47.2969 23.8398C47.141 23.6845 46.9749 23.538 46.7998 23.4004C46.3915 23.1158 46.0049 22.8063 45.6406 22.4756ZM49.6953 23.9688C49.6672 23.9206 49.6386 23.8727 49.6094 23.8252C49.6387 23.8727 49.6672 23.9206 49.6953 23.9688ZM58.9746 23.6846C58.941 23.7358 58.9084 23.7877 58.876 23.8398C58.9084 23.7877 58.941 23.7358 58.9746 23.6846ZM49.5 23.6523C49.4713 23.6086 49.4417 23.5656 49.4121 23.5225C49.4417 23.5656 49.4713 23.6086 49.5 23.6523ZM59.1807 23.3857C59.1408 23.4407 59.1009 23.4957 59.0625 23.5518C59.1009 23.4957 59.1408 23.4407 59.1807 23.3857ZM49.3389 23.417C49.2931 23.3528 49.2462 23.2894 49.1982 23.2266C49.2462 23.2894 49.2931 23.3528 49.3389 23.417ZM59.4033 23.0928C59.3539 23.1546 59.3053 23.217 59.2578 23.2803C59.3053 23.217 59.3539 23.1546 59.4033 23.0928ZM62.2842 23.0342C62.1895 23.1144 62.0933 23.193 61.9961 23.2705L62.2852 23.0342C62.38 22.9539 62.4733 22.872 62.5654 22.7891L62.2842 23.0342ZM49.125 23.1309C49.083 23.0777 49.0396 23.0257 48.9961 22.9736C49.0396 23.0257 49.083 23.0777 49.125 23.1309ZM59.627 22.8242C59.5705 22.8888 59.5152 22.9542 59.4609 23.0205C59.5152 22.9542 59.5705 22.8888 59.627 22.8242ZM48.8955 22.8545C48.8535 22.8062 48.81 22.7592 48.7666 22.7119C48.81 22.7592 48.8535 22.8062 48.8955 22.8545ZM59.8555 22.5742C59.7966 22.6361 59.7383 22.6982 59.6816 22.7617C59.7383 22.6982 59.7966 22.6361 59.8555 22.5742ZM47.4424 21.5518C47.5913 21.6715 47.7439 21.7886 47.9004 21.9004C48.1772 22.1219 48.4369 22.3606 48.6777 22.6143C48.5184 22.4464 48.3511 22.2849 48.1758 22.1309L47.9004 21.9004C47.7437 21.7885 47.5915 21.6716 47.4424 21.5518ZM63.1016 22.2764C63.0149 22.3641 62.9272 22.4509 62.8379 22.5361L63.1025 22.2764C63.1892 22.1887 63.2745 22.0998 63.3584 22.0098L63.1016 22.2764ZM60.1533 22.2764C60.0771 22.3487 60.0027 22.4223 59.9297 22.4971C60.0027 22.4223 60.0771 22.3487 60.1533 22.2764ZM45.3682 22.2197C45.412 22.2622 45.4564 22.3039 45.501 22.3457C45.4565 22.3039 45.412 22.2621 45.3682 22.2197ZM44.8711 21.708C45.003 21.8523 45.139 21.993 45.2783 22.1309C45.139 21.993 45.003 21.8523 44.8711 21.708ZM44.626 21.4316C44.6607 21.4721 44.6962 21.5118 44.7314 21.5518C44.6962 21.5118 44.6607 21.4721 44.626 21.4316ZM44.3662 21.1191C44.4229 21.1899 44.4808 21.2596 44.5391 21.3291C44.4808 21.2596 44.4229 21.1899 44.3662 21.1191ZM46.5479 20.7402C46.6649 20.8598 46.784 20.9777 46.9072 21.0918L46.6777 20.8721C46.6338 20.8287 46.591 20.7843 46.5479 20.7402ZM44.1475 20.8369C44.2076 20.9168 44.2689 20.9958 44.3311 21.0742C44.2689 20.9958 44.2076 20.9168 44.1475 20.8369ZM43.9463 20.5615C43.9889 20.6216 44.0325 20.6809 44.0762 20.7402C44.0325 20.681 43.9889 20.6216 43.9463 20.5615ZM43.7363 20.2559C43.7716 20.309 43.8076 20.3615 43.8438 20.4141C43.8076 20.3615 43.7716 20.309 43.7363 20.2559ZM43.5439 19.9561C43.5831 20.0189 43.6228 20.0814 43.6631 20.1436C43.6228 20.0814 43.5831 20.0189 43.5439 19.9561ZM45.833 19.9307C45.867 19.9736 45.9028 20.0152 45.9375 20.0576C45.8363 19.9338 45.7367 19.8088 45.6416 19.6807L45.833 19.9307ZM43.3535 19.6387C43.3906 19.7025 43.4285 19.7659 43.4668 19.8291C43.4285 19.7659 43.3906 19.7025 43.3535 19.6387ZM63.2334 19.1621C63.0923 19.3754 62.9404 19.5825 62.7822 19.7861C62.9403 19.5827 63.0924 19.3762 63.2334 19.1631V19.1621ZM65.2705 19.3154C65.2134 19.424 65.155 19.5319 65.0947 19.6387L65.2715 19.3154C65.3286 19.207 65.3836 19.0974 65.4375 18.9873L65.2705 19.3154ZM43.1895 19.3477C43.2192 19.4023 43.2497 19.4566 43.2803 19.5107C43.2497 19.4566 43.2192 19.4023 43.1895 19.3477ZM45.2822 19.165C45.3395 19.2528 45.3981 19.3397 45.458 19.4258L45.2832 19.165C45.226 19.0772 45.1698 18.9888 45.1152 18.8994L45.2822 19.165ZM43 18.9873C43.0342 19.0554 43.0691 19.123 43.1045 19.1904C43.0691 19.123 43.0342 19.0554 43 18.9873ZM42.8496 18.6768C42.8822 18.7464 42.9154 18.8157 42.9492 18.8848C42.9154 18.8157 42.8822 18.7464 42.8496 18.6768ZM42.6895 18.3174C42.7209 18.3908 42.7522 18.4643 42.7852 18.5371C42.7522 18.4643 42.7209 18.3908 42.6895 18.3174ZM42.5488 17.9746C42.5766 18.0452 42.6047 18.1155 42.6338 18.1855C42.6047 18.1155 42.5766 18.0452 42.5488 17.9746ZM42.418 17.6279C42.4485 17.7129 42.4794 17.7976 42.5117 17.8818C42.4794 17.7976 42.4485 17.7129 42.418 17.6279ZM66.2295 16.9219C66.1619 17.1598 66.0873 17.3953 66.0059 17.6279L66.123 17.2773C66.1603 17.1598 66.1957 17.0416 66.2295 16.9229V16.9219ZM42.292 17.2598C42.3199 17.3461 42.3491 17.4319 42.3789 17.5176C42.3491 17.4319 42.3199 17.3461 42.292 17.2598ZM42.1885 16.9219C42.2146 17.0113 42.2404 17.1007 42.2686 17.1895C42.2404 17.1007 42.2146 17.0113 42.1885 16.9219ZM42.0723 16.501C42.0998 16.6092 42.1297 16.7168 42.1602 16.8242C42.1297 16.7168 42.0998 16.6092 42.0723 16.501ZM66.6025 15.0957C66.5391 15.593 66.4464 16.083 66.3252 16.5635L66.4111 16.2021C66.5182 15.7169 66.5969 15.2227 66.6455 14.7217L66.6025 15.0957ZM41.9238 15.8359C41.9423 15.9302 41.9608 16.0244 41.9814 16.1182C41.9608 16.0244 41.9423 15.9302 41.9238 15.8359ZM41.877 15.5771C41.8871 15.6357 41.8962 15.6945 41.9072 15.7529C41.8962 15.6945 41.8871 15.6357 41.877 15.5771ZM41.7539 14.6914C41.7653 14.8069 41.7793 14.9221 41.7939 15.0371C41.7793 14.9221 41.7653 14.8069 41.7539 14.6914ZM66.6641 12.4307C66.6835 12.685 66.6964 12.9416 66.7002 13.2002C66.7064 13.4563 66.7045 13.7113 66.6953 13.9648L66.7041 13.584C66.7049 13.4564 66.7033 13.3284 66.7002 13.2002C66.6964 12.9416 66.6835 12.685 66.6641 12.4307ZM65.9795 9.23047C65.9531 9.15681 65.9281 9.08276 65.9004 9.00977C65.9281 9.08276 65.9531 9.15681 65.9795 9.23047ZM65.7998 8.75977C65.759 8.65912 65.7191 8.55828 65.6758 8.45898C65.7191 8.55828 65.759 8.65912 65.7998 8.75977ZM65.5127 8.10547C65.483 8.04294 65.4545 7.97991 65.4238 7.91797C65.4545 7.97991 65.483 8.04294 65.5127 8.10547ZM65.3105 7.7002C65.2552 7.59392 65.2009 7.48724 65.1426 7.38281C65.2009 7.48724 65.2552 7.59392 65.3105 7.7002ZM46.7871 5.97461C46.3152 6.44337 45.8863 6.95447 45.5068 7.50098L45.8008 7.09863C46.2046 6.57022 46.6564 6.07917 47.1494 5.63184L46.7871 5.97461ZM65.0459 7.21777C64.9808 7.10538 64.9161 6.99292 64.8477 6.88281C64.9161 6.99293 64.9808 7.10538 65.0459 7.21777ZM64.7139 6.67676C64.6521 6.58174 64.5906 6.48674 64.5264 6.39355C64.5906 6.48674 64.6521 6.58174 64.7139 6.67676ZM64.3594 6.16016C64.3031 6.08237 64.2475 6.00414 64.1895 5.92773C64.2475 6.00414 64.3031 6.08237 64.3594 6.16016ZM64.0039 5.69238C63.9415 5.6142 63.8797 5.53561 63.8154 5.45898C63.8797 5.53561 63.9415 5.6142 64.0039 5.69238ZM63.6406 5.25781C63.5707 5.17798 63.5006 5.09851 63.4287 5.02051C63.5006 5.09851 63.5707 5.17798 63.6406 5.25781ZM63.2432 4.82617C63.1713 4.75148 63.1 4.67639 63.0264 4.60352C63.1 4.67639 63.1713 4.75148 63.2432 4.82617ZM62.792 4.37891C62.7317 4.32228 62.6717 4.26539 62.6104 4.20996C62.6717 4.26539 62.7317 4.32228 62.792 4.37891ZM62.3516 3.98438C62.2896 3.93141 62.2281 3.87793 62.165 3.82617C62.2281 3.87793 62.2896 3.93141 62.3516 3.98438ZM61.9287 3.63867C61.8503 3.57736 61.7723 3.5155 61.6924 3.45605C61.7723 3.5155 61.8503 3.57736 61.9287 3.63867ZM61.459 3.28906C61.3793 3.23255 61.2998 3.17576 61.2188 3.12109C61.2998 3.17575 61.3793 3.23255 61.459 3.28906ZM60.9824 2.9668C60.8938 2.90991 60.8049 2.8535 60.7148 2.79883C60.8049 2.8535 60.8938 2.90991 60.9824 2.9668ZM60.4795 2.66016C60.393 2.61025 60.3065 2.56056 60.2188 2.5127C60.3065 2.56056 60.393 2.61025 60.4795 2.66016ZM59.9365 2.36523C59.8561 2.32398 59.7757 2.2827 59.6943 2.24316C59.7757 2.2827 59.8561 2.32398 59.9365 2.36523ZM59.4268 2.11719C59.3326 2.07417 59.238 2.03192 59.1426 1.99121C59.238 2.03192 59.3326 2.07417 59.4268 2.11719ZM58.9023 1.89258C58.7991 1.85105 58.6954 1.81029 58.5908 1.77148C58.6954 1.81029 58.7991 1.85105 58.9023 1.89258ZM58.3271 1.67773C58.2325 1.64503 58.1377 1.61249 58.042 1.58203C58.1377 1.61249 58.2325 1.64503 58.3271 1.67773ZM57.7617 1.49707C57.6622 1.46798 57.5624 1.43972 57.4619 1.41309C57.5624 1.43972 57.6622 1.46798 57.7617 1.49707ZM57.1748 1.34082C57.0785 1.31776 56.9818 1.29617 56.8848 1.27539C56.9818 1.29617 57.0785 1.31776 57.1748 1.34082ZM56.4307 1.18457C56.4241 1.18343 56.4177 1.1818 56.4111 1.18066C56.4177 1.1818 56.4241 1.18343 56.4307 1.18457ZM55.2334 1.03418C55.1756 1.02982 55.1176 1.02699 55.0596 1.02344C55.1176 1.02699 55.1756 1.02982 55.2334 1.03418ZM50.5908 26.6338C50.5798 26.5382 50.5678 26.4431 50.5527 26.3486C50.5678 26.4431 50.5798 26.5382 50.5908 26.6338ZM57.9766 25.873C57.9437 25.9872 57.9124 26.1027 57.8838 26.2197C57.9124 26.1027 57.9437 25.9872 57.9766 25.873ZM58.1963 25.2129C58.164 25.2979 58.1332 25.3839 58.1035 25.4707C58.1332 25.3839 58.164 25.2979 58.1963 25.2129ZM42.0137 16.2568C42.0326 16.3384 42.0517 16.4199 42.0723 16.501C42.0517 16.4199 42.0326 16.3384 42.0137 16.2568ZM41.7334 14.4365C41.74 14.5216 41.7455 14.6066 41.7539 14.6914C41.7455 14.6066 41.74 14.5215 41.7334 14.4365Z" fill="#B6181F"/>
</svg>
